<svg version="1.2" xmlns="http://www.w3.org/2000/svg" viewBox="0 0 640 70" width="640" height="70">
	<title>New Project</title>
	<style>
		.s0 { fill: #000000 } 
	</style>
	<g id="Folder 2">
		<path id="AMZ" class="s0" aria-label="AMZ"  d="m242.6 22.7l-9.6 21.6h19.2zm-10.6 20.3l14.1-32h1.6l20.5 44.5q1.4 2.6 3.7 3.4 2.4 0.7 5 0.7v1.4h-28.6v-1.4q6.1 0 7.5-0.7 1.5-0.8 1.5-2.5 0-1.8-4.3-10.7h-20.4l-2.2 4.8q-0.3 0.9-0.3 2.9 0.3 3.2 2.2 4.7 2 1.5 4.8 1.5v1.4h-20.1v-1.4q8.6 0 15-16.6zm48.4-31.1h20.5l18.5 37.5 18.2-37.5h19.4v1.4q-6.7 0-8.7 2.4-1.9 2.4-1.9 7.6v26.4q0 5.2 1.9 7.6 2 2.4 8.7 2.4v1.3h-31.6v-1.3q7 0 9-2.4 2-2.4 2-7.6v-32.2l-21.1 43.5h-1.5l-21.3-43.6v30.2q0 5.2 2.5 8.6 2.5 3.5 8.1 3.5v1.3h-22.7v-1.3q5.6 0 8.1-3.1 2.5-3.1 2.5-8.3v-25q0-5.2-2-7.6-2-2.4-8.6-2.4zm89.3 17.9v-17.9h43.3v1.4l-34.9 46.3h13.5q9.1 0 13.7-4.4 4.6-4.5 7.8-14.6h1.5v20.4h-48.6v-1.4l35.1-46.3h-9.1q-10.2 0-14.5 4.6-4.1 4.5-6.5 11.9z"/>
		<g id="Folder 1">
			<path id="Shape 1" class="s0" d="m441 57.4v-5h154.4v5z"/>
			<path id="Shape 2" class="s0" d="m441 35.9v-4h190v4z"/>
			<path id="Shape 1 copy" class="s0" d="m441 17.4v-5h154.4v5z"/>
		</g>
		<g id="Folder 1 copy">
			<path id="Shape 1" class="s0" d="m199 52.4v5h-154.4v-5z"/>
			<path id="Shape 2" class="s0" d="m199 31.9v4h-190v-4z"/>
			<path id="Shape 1 copy" class="s0" d="m199 12.4v5h-154.4v-5z"/>
		</g>
	</g>
</svg>